<svg xmlns="http://www.w3.org/2000/svg" viewBox="0 0 1245 317.16"><defs><style>.cls-1{fill:#56bf9d;}.cls-2{fill:#fff;}.cls-3{fill:#231f20;}</style></defs><g id="Layer_2" data-name="Layer 2"><g id="Layer_1-2" data-name="Layer 1"><polygon class="cls-1" points="68.11 73.64 0.32 73.64 0.32 31.04 34.2 5.86 68.11 31.04 68.11 73.64"/><polygon class="cls-2" points="12.77 31.04 34.2 15.11 55.67 31.04 12.77 31.04"/><polygon class="cls-3" points="1052.53 0 1052.53 67.79 1177.21 67.79 1177.21 124.68 1052.53 124.68 1052.53 192.47 1177.21 192.47 1177.21 249.34 1052.53 249.34 1052.53 317.13 1245 317.13 1245 0 1052.53 0"/><polygon class="cls-3" points="959.47 249.34 845.71 249.34 845.71 124.68 777.92 124.68 777.92 317.13 777.92 317.13 777.92 317.13 1027.26 317.13 1027.26 317.13 1027.26 124.68 959.47 124.68 959.47 249.34"/><rect class="cls-3" y="124.68" width="67.79" height="192.47"/><polygon class="cls-3" points="752.62 124.68 435.49 124.68 435.49 317.13 503.28 317.13 503.28 192.47 560.17 192.47 560.17 317.13 627.96 317.13 627.96 192.47 684.83 192.47 684.83 317.13 752.62 317.13 752.62 124.68 752.62 124.68 752.62 124.68"/><polygon class="cls-3" points="410.22 124.68 93.09 124.68 93.09 124.68 93.09 317.13 160.88 317.13 160.88 192.47 217.74 192.47 217.74 317.13 285.53 317.13 285.53 192.47 342.43 192.47 342.43 317.13 410.22 317.13 410.22 124.68 410.22 124.68 410.22 124.68"/></g></g></svg>